<svg width="20" height="24" viewBox="0 0 20 24" fill="none" xmlns="http://www.w3.org/2000/svg">
<path d="M9.05858 7.09833V4.78431C9.05858 4.41595 8.89224 4.2453 8.54735 4.2453H7.98511V7.63734H8.54735C8.89277 7.63734 9.05858 7.46669 9.05858 7.09833Z" fill="white"/>
<path d="M7.23262 15.3089L6.92652 16.102H7.53553L7.23262 15.3089Z" fill="white"/>
<path d="M18.1709 0H1.82915C0.488907 0 0 0.506432 0 1.87882V18.6071C0 18.8225 0.0371994 19.2096 0.10469 19.3753C0.17218 19.541 0.234888 19.6768 0.359771 19.7978C0.488907 19.9226 0.712103 20.0524 0.81945 20.1032L9.48213 23.8912C9.64156 23.9613 9.81639 24 9.99973 24C10.1836 24 10.3584 23.9613 10.5173 23.8912L19.1805 20.1026C19.2879 20.0518 19.5111 19.922 19.6402 19.7972C19.7651 19.6763 19.8278 19.5404 19.8953 19.3747C19.9628 19.2091 20 18.8219 20 18.6065V1.87882C20 0.506432 19.5111 0 18.1709 0ZM11.0434 3.00987H12.4113V12.2123H11.0434V3.00987ZM11.1141 14.4126H11.9091V17.2016H11.1604V15.5994L10.4658 16.6913H10.4504L9.75953 15.6077V17.2016H9.02245V14.4126H9.81746L10.4653 15.4923L11.1141 14.4126ZM6.61724 3.00987H8.76471C9.87698 3.00987 10.4265 3.57484 10.4265 4.71915V7.1646C10.4265 8.30835 9.87698 8.87332 8.76471 8.87332H7.98512V12.2123H6.61724V3.00987ZM2.8888 3.00987H5.93118V4.28506H4.25668V6.88846H5.86688V8.16366H4.25668V10.9377H5.95669V12.2129H2.8888V3.00987ZM5.48054 16.8299C5.33546 16.9519 5.16487 17.0547 4.96825 17.1369C4.77162 17.2192 4.54949 17.2606 4.30078 17.2606C4.08875 17.2606 3.89265 17.2248 3.71303 17.153C3.53288 17.0812 3.37771 16.9818 3.24538 16.8542C3.11359 16.7266 3.00996 16.5747 2.93503 16.398C2.8601 16.2218 2.8229 16.028 2.8229 15.8187V15.8104C2.8229 15.606 2.85957 15.4155 2.93344 15.2404C3.00731 15.0654 3.10881 14.9118 3.23794 14.7804C3.36761 14.649 3.52172 14.5462 3.70134 14.4717C3.88096 14.3977 4.07546 14.3601 4.28484 14.3601C4.52557 14.3601 4.73283 14.396 4.90767 14.4678C5.08197 14.5396 5.24193 14.639 5.38701 14.7666L4.94487 15.3122C4.84655 15.2272 4.74611 15.162 4.64408 15.1173C4.54205 15.072 4.42354 15.0494 4.28909 15.0494C4.19078 15.0494 4.09991 15.0692 4.01541 15.109C3.93145 15.1488 3.85864 15.2034 3.79647 15.2725C3.73429 15.3415 3.6854 15.4227 3.64926 15.5155C3.61313 15.6083 3.59506 15.7082 3.59506 15.8143V15.8225C3.59506 15.9341 3.61313 16.0379 3.64926 16.1329C3.6854 16.2285 3.73695 16.3102 3.80231 16.3781C3.86821 16.446 3.9458 16.4991 4.03507 16.5377C4.12435 16.5758 4.2232 16.5957 4.33214 16.5957C4.50804 16.5957 4.65258 16.5576 4.76684 16.4803V16.1417H4.2317V15.574H5.48054V16.8299ZM5.71968 17.2016L6.87658 14.3922H7.60197L8.75834 17.2016H7.95164L7.75342 16.7034H6.70599L6.51202 17.2016H5.71968ZM13.3014 20.2882C13.2977 20.297 13.2924 20.3048 13.286 20.3114C13.2797 20.318 13.2722 20.3235 13.2637 20.3269L10.1028 21.7092C10.0688 21.7241 10.0316 21.7324 9.99283 21.7324C9.95403 21.7324 9.91683 21.7241 9.88282 21.7092L6.74638 20.3269C6.73788 20.323 6.73044 20.3175 6.72406 20.3114C6.71768 20.3048 6.71237 20.297 6.70865 20.2882C6.70493 20.2794 6.70333 20.27 6.70333 20.2595C6.70333 20.249 6.70546 20.2396 6.70865 20.2308C6.71237 20.2219 6.71768 20.2142 6.72406 20.2076C6.73044 20.2009 6.73788 20.1954 6.74638 20.1915C6.75488 20.1877 6.76392 20.186 6.77401 20.186H13.2361C13.2456 20.186 13.2552 20.1882 13.2637 20.1915C13.2722 20.1954 13.2797 20.2004 13.286 20.2076C13.2924 20.2142 13.2977 20.2219 13.3014 20.2308C13.3052 20.2396 13.3068 20.249 13.3068 20.2595C13.3068 20.27 13.3046 20.2794 13.3014 20.2882ZM14.6162 17.2016H12.4124V14.4126H14.5965V15.0703H13.1569V15.4928H14.4605V16.1025H13.1569V16.5449H14.6157V17.2016H14.6162ZM13.1341 10.582V4.63962C13.1341 3.49587 13.6841 2.93034 14.7958 2.93034H15.4606C16.5729 2.93034 17.1096 3.48261 17.1096 4.62637V6.50629H15.7678V4.70534C15.7678 4.33698 15.6014 4.16633 15.2565 4.16633H15.0264C14.6683 4.16633 14.5025 4.33698 14.5025 4.70534V10.5163C14.5025 10.8847 14.6688 11.0553 15.0264 11.0553H15.2821C15.6269 11.0553 15.7933 10.8847 15.7933 10.5163V8.43924H17.1356V10.582C17.1356 11.7258 16.5862 12.2913 15.4739 12.2913H14.7963C13.6841 12.2913 13.1341 11.7263 13.1341 10.582ZM17.1872 16.3433C17.1872 16.4869 17.1606 16.6145 17.1075 16.726C17.0543 16.8376 16.9799 16.9326 16.8843 17.011C16.7886 17.0894 16.6738 17.1491 16.5389 17.1905C16.4044 17.2319 16.2546 17.2524 16.0887 17.2524C15.8454 17.2524 15.6147 17.2143 15.3963 17.1369C15.1779 17.0596 14.9845 16.9442 14.8165 16.7901L15.2353 16.2759C15.5068 16.4991 15.8002 16.6106 16.1159 16.6106C16.2168 16.6106 16.2939 16.5941 16.3465 16.5609C16.3996 16.5278 16.4262 16.4808 16.4262 16.4195V16.4113C16.4262 16.382 16.4193 16.356 16.4065 16.3339C16.3938 16.3113 16.3699 16.2898 16.3348 16.2682C16.2997 16.2467 16.253 16.2262 16.1956 16.2064C16.1371 16.1865 16.0622 16.166 15.9686 16.1445C15.8236 16.1097 15.6891 16.0722 15.5653 16.0313C15.4415 15.9899 15.3331 15.9369 15.2411 15.8717C15.1492 15.8065 15.0769 15.7253 15.0238 15.6287C14.9706 15.532 14.9441 15.4111 14.9441 15.2681V15.2598C14.9441 15.13 14.968 15.0101 15.0158 14.9008C15.0636 14.7914 15.1338 14.6976 15.2252 14.618C15.3166 14.5385 15.4277 14.4767 15.5568 14.4325C15.6865 14.3888 15.8326 14.3668 15.9952 14.3668C16.228 14.3668 16.4358 14.3977 16.618 14.4606C16.8003 14.5236 16.9651 14.6153 17.1128 14.7379L16.7365 15.2835C16.6127 15.1929 16.4852 15.125 16.3545 15.0781C16.2237 15.0317 16.0978 15.0079 15.9766 15.0079C15.8863 15.0079 15.8177 15.0256 15.7731 15.0599C15.7279 15.0941 15.7051 15.1372 15.7051 15.1874V15.1957C15.7051 15.2277 15.712 15.2554 15.7263 15.2791C15.7407 15.3029 15.7651 15.3249 15.8002 15.3448C15.8353 15.3647 15.8831 15.3851 15.9437 15.4045C16.0043 15.4243 16.0813 15.4448 16.1743 15.4663C16.3295 15.5006 16.4698 15.5414 16.5952 15.5878C16.7206 15.6342 16.8269 15.6911 16.9156 15.7568C17.0033 15.8231 17.0708 15.9032 17.117 15.9982C17.1638 16.0926 17.1872 16.2047 17.1872 16.335V16.3433Z" fill="white"/>
</svg>
