<svg width="36" height="36" viewBox="0 0 36 36" fill="none" xmlns="http://www.w3.org/2000/svg">
<path d="M0.000427246 18C0.000427246 8.0589 8.05933 0 18.0004 0C27.9415 0 36.0004 8.0589 36.0004 18C36.0004 27.9411 27.9415 36 18.0004 36C8.05933 36 0.000427246 27.9411 0.000427246 18Z" fill="white"/>
<path d="M15.924 21.8696L15.9139 21.846C15.7618 21.8044 15.611 21.7583 15.4616 21.7076L15.4504 21.7031C13.8963 21.1714 12.5473 20.167 11.5923 18.8306C10.6374 17.4942 10.1242 15.8926 10.1247 14.25C10.1241 12.2341 10.8967 10.2948 12.2833 8.83152C13.6698 7.36822 15.5648 6.49237 17.5777 6.38437C19.5907 6.27636 21.5685 6.94443 23.1036 8.25098C24.6388 9.55752 25.6145 11.403 25.8296 13.4074C25.8791 13.8709 25.4966 14.25 25.0309 14.25C24.5651 14.25 24.1928 13.8698 24.1309 13.4085C23.9813 12.3198 23.5444 11.2906 22.8653 10.4266C22.1862 9.56268 21.2892 8.89514 20.2667 8.49263C19.2441 8.09012 18.1328 7.96715 17.047 8.13637C15.9611 8.30559 14.94 8.76089 14.0884 9.45547C13.2368 10.1501 12.5855 11.0589 12.2015 12.0885C11.8174 13.1182 11.7145 14.2315 11.9033 15.3141C12.092 16.3967 12.5656 17.4095 13.2754 18.2485C13.9852 19.0874 14.9056 19.7222 15.942 20.0876C16.1508 19.6157 16.5154 19.2299 16.9748 18.9949C17.4342 18.7599 17.9605 18.6899 18.4653 18.7967C18.9702 18.9035 19.423 19.1806 19.7478 19.5815C20.0727 19.9824 20.2499 20.4829 20.2497 20.9989C20.2502 21.5189 20.0705 22.0231 19.7413 22.4257C19.412 22.8282 18.9535 23.1043 18.4437 23.2069C17.9338 23.3095 17.4042 23.2324 16.9449 22.9886C16.4855 22.7448 16.1248 22.3494 15.924 21.8696ZM14.7709 23.2534C13.4445 22.777 12.2397 22.0133 11.2429 21.0169C10.6266 21.0886 10.058 21.3842 9.64529 21.8475C9.23257 22.3108 9.00441 22.9096 9.00415 23.5301V24.5651C9.00415 25.2086 9.2044 25.8364 9.5779 26.3606C11.3126 28.7951 14.1521 30 17.9996 30C21.8471 30 24.6878 28.794 26.4259 26.3606C26.8011 25.8359 27.0029 25.2069 27.003 24.5618V23.529C27.003 22.8581 26.7366 22.2146 26.2624 21.7399C25.7882 21.2653 25.145 20.9984 24.474 20.9978H21.9371C21.9373 21.8357 21.6702 22.6519 21.1745 23.3275C20.6789 24.0032 19.9806 24.5031 19.1813 24.7546C18.382 25.0061 17.5232 24.996 16.73 24.7258C15.9368 24.4556 15.2505 23.9405 14.7709 23.2534ZM22.4996 14.25C22.4997 13.5924 22.3555 12.9427 22.0774 12.3468C21.7992 11.7509 21.3939 11.2231 20.8898 10.8008C20.4219 10.4093 19.8792 10.1171 19.2949 9.94194C18.7105 9.76673 18.0967 9.71217 17.4906 9.78157C16.8845 9.85096 16.2988 10.0429 15.7692 10.3456C15.2396 10.6484 14.7771 11.0557 14.4097 11.5427C14.0424 12.0298 13.7779 12.5864 13.6324 13.1789C13.4869 13.7713 13.4633 14.3872 13.5632 14.989C13.663 15.5908 13.8842 16.166 14.2133 16.6797C14.5424 17.1934 14.9724 17.6348 15.4774 17.9771C16.1852 17.3864 17.0778 17.0627 17.9996 17.0625C18.9593 17.0625 19.839 17.4056 20.523 17.9771C21.132 17.5647 21.6306 17.0093 21.9752 16.3596C22.3198 15.7098 22.4998 14.9855 22.4996 14.25Z" fill="#040404"/>
</svg>
