<svg width="25" height="24" viewBox="0 0 25 24" fill="none" xmlns="http://www.w3.org/2000/svg">
<path fill-rule="evenodd" clip-rule="evenodd" d="M7.44893 15.4075H4.54056C4.48637 15.4075 4.43273 15.4184 4.38271 15.4394C4.33268 15.4604 4.28727 15.4912 4.24906 15.5299C4.21085 15.5687 4.18061 15.6147 4.16007 15.6653C4.13952 15.7158 4.12908 15.77 4.12934 15.8247C4.12934 15.8247 4.13034 15.8247 4.13034 15.8274H4.12934V17.9207H4.13034L4.12934 17.9224C4.12934 18.1519 4.3124 18.3406 4.54056 18.3406H7.44893V19.737H3.81994V19.7337C3.67897 19.7339 3.53935 19.706 3.40906 19.6517C3.27877 19.5974 3.16036 19.5178 3.0606 19.4173C2.96085 19.3168 2.8817 19.1975 2.82768 19.0661C2.77367 18.9347 2.74584 18.7939 2.7458 18.6517V15.092C2.74668 14.8054 2.86029 14.5308 3.0617 14.3286C3.2631 14.1264 3.53581 14.0132 3.81994 14.0137H7.44893V15.4075Z" fill="white"/>
<path fill-rule="evenodd" clip-rule="evenodd" d="M8.49893 11.5199C8.49911 11.6642 8.47108 11.8071 8.41645 11.9404C8.36182 12.0737 8.28167 12.1949 8.18058 12.2969C8.07948 12.399 7.95944 12.4799 7.8273 12.5351C7.69517 12.5903 7.55354 12.6187 7.41053 12.6186H2.74256V11.2034H6.67797C6.90945 11.2034 7.09516 11.0124 7.09516 10.7798V6.10136C7.09516 5.86817 6.90945 5.67914 6.67797 5.67914H4.56319C4.5083 5.67919 4.45396 5.69015 4.40328 5.7114C4.3526 5.73265 4.30657 5.76377 4.26782 5.80299C4.22907 5.8422 4.19837 5.88874 4.17747 5.93994C4.15656 5.99114 4.14587 6.04599 4.146 6.10136V8.2305C4.14574 8.28597 4.15633 8.34095 4.17717 8.39228C4.19801 8.44361 4.22869 8.49029 4.26745 8.52964C4.3062 8.56899 4.35228 8.60023 4.40303 8.62158C4.45378 8.64293 4.5082 8.65396 4.56319 8.65405H6.25283V10.0692H3.83096C3.68802 10.0694 3.54645 10.0411 3.41437 9.98604C3.28228 9.93094 3.16226 9.85009 3.06119 9.74813C2.96012 9.64616 2.87998 9.52508 2.82536 9.39183C2.77074 9.25857 2.74272 9.11575 2.74289 8.97155V5.36098C2.74276 5.21676 2.77081 5.07393 2.82543 4.94065C2.88006 4.80738 2.96019 4.68627 3.06125 4.58426C3.1623 4.48225 3.28229 4.40134 3.41437 4.34615C3.54644 4.29096 3.688 4.26257 3.83096 4.26262H7.41053C7.69923 4.26271 7.97606 4.37847 8.18017 4.58444C8.38427 4.79041 8.49893 5.06973 8.49893 5.36098V11.5199Z" fill="white"/>
<path fill-rule="evenodd" clip-rule="evenodd" d="M22.2529 19.734H20.8693V15.4081H19.8976C19.8434 15.4081 19.7897 15.4189 19.7397 15.4398C19.6896 15.4608 19.6441 15.4915 19.6058 15.5302C19.5676 15.569 19.5373 15.6149 19.5166 15.6655C19.496 15.7161 19.4855 15.7703 19.4858 15.825V19.734H18.1029V15.4081H17.1302C17.076 15.4082 17.0224 15.419 16.9723 15.44C16.9223 15.461 16.8769 15.4917 16.8386 15.5304C16.8004 15.5691 16.77 15.6151 16.7494 15.6656C16.7288 15.7162 16.7182 15.7703 16.7183 15.825V19.7377H15.3355V15.0927C15.336 14.8061 15.4493 14.5315 15.6505 14.3292C15.8517 14.127 16.1242 14.0136 16.4083 14.014H22.2525L22.2529 19.734Z" fill="white"/>
<path fill-rule="evenodd" clip-rule="evenodd" d="M22.2561 11.5199C22.2563 11.6641 22.2282 11.807 22.1736 11.9403C22.119 12.0736 22.0389 12.1948 21.9378 12.2968C21.8368 12.3989 21.7168 12.4798 21.5847 12.535C21.4526 12.5902 21.311 12.6186 21.168 12.6186H16.5V11.2034H20.4355C20.6676 11.2034 20.8546 11.0124 20.8546 10.7798V6.10136C20.8547 6.04585 20.8439 5.99087 20.8228 5.93958C20.8017 5.88829 20.7709 5.8417 20.7319 5.80247C20.693 5.76325 20.6467 5.73217 20.5959 5.711C20.545 5.68984 20.4905 5.67901 20.4355 5.67915H18.321C18.2104 5.67959 18.1044 5.72429 18.0264 5.80344C17.9484 5.88259 17.9046 5.98973 17.9048 6.10136V8.2305C17.9048 8.46436 18.0918 8.65405 18.321 8.65405H20.0096V10.0692H17.5888C17.4458 10.0694 17.3042 10.0411 17.1721 9.98597C17.04 9.93086 16.92 9.85002 16.8189 9.74807C16.7178 9.64612 16.6375 9.52507 16.5828 9.39183C16.5281 9.25858 16.5 9.11577 16.5 8.97155V5.36098C16.5 5.21669 16.5281 5.07379 16.5828 4.94047C16.6375 4.80715 16.7177 4.68602 16.8188 4.58401C16.92 4.48199 17.0401 4.4011 17.1723 4.34595C17.3044 4.2908 17.4461 4.26249 17.5891 4.26262H21.1677C21.4563 4.26288 21.733 4.37871 21.937 4.58465C22.141 4.7906 22.2557 5.06982 22.2558 5.36098L22.2561 11.5199Z" fill="white"/>
<path fill-rule="evenodd" clip-rule="evenodd" d="M13.9715 8.23053C13.9722 8.28586 13.9621 8.3408 13.9416 8.39216C13.9212 8.44351 13.8908 8.49025 13.8523 8.52968C13.8138 8.56911 13.7679 8.60044 13.7173 8.62185C13.6668 8.64326 13.6125 8.65433 13.5576 8.65441H11.4435C11.3884 8.65437 11.3339 8.64336 11.2831 8.62201C11.2323 8.60067 11.1861 8.5694 11.1473 8.53002C11.1085 8.49064 11.0777 8.4439 11.0569 8.39251C11.036 8.34111 11.0254 8.28607 11.0256 8.23053V6.10138C11.0256 5.8682 11.2113 5.6795 11.4435 5.6795H13.5576C13.6123 5.6795 13.6665 5.69044 13.717 5.7117C13.7675 5.73295 13.8133 5.7641 13.8518 5.80333C13.8903 5.84256 13.9207 5.88911 13.9412 5.94027C13.9618 5.99143 13.972 6.04619 13.9715 6.10138V8.23053ZM14.2898 4.26331H10.7099C10.567 4.26336 10.4256 4.29179 10.2936 4.347C10.1616 4.40221 10.0417 4.48311 9.94075 4.58508C9.83978 4.68704 9.7597 4.80808 9.70509 4.94127C9.65049 5.07446 9.62243 5.2172 9.62252 5.36134V8.97191C9.6223 9.11608 9.65027 9.25888 9.70482 9.39213C9.75938 9.52539 9.83946 9.64647 9.94046 9.74847C10.0415 9.85046 10.1614 9.93135 10.2935 9.98651C10.4255 10.0417 10.567 10.07 10.7099 10.0699H14.2898C14.5783 10.0697 14.855 9.95388 15.0589 9.748C15.2629 9.54212 15.3775 9.26298 15.3776 8.97191V5.36134C15.3774 5.07029 15.2628 4.79121 15.0588 4.58535C14.8549 4.37949 14.5783 4.26367 14.2898 4.26331Z" fill="white"/>
<path fill-rule="evenodd" clip-rule="evenodd" d="M12.8452 17.9207C12.8454 17.9754 12.835 18.0295 12.8145 18.0801C12.794 18.1307 12.7639 18.1768 12.7257 18.2156C12.6876 18.2544 12.6423 18.2853 12.5923 18.3065C12.5424 18.3276 12.4888 18.3386 12.4346 18.3389C12.4326 18.3389 12.432 18.3366 12.43 18.3366V18.3389H10.3553V18.3366C10.3553 18.3366 10.353 18.3389 10.3507 18.3389C10.2964 18.3387 10.2428 18.3278 10.1927 18.3066C10.1427 18.2855 10.0973 18.2547 10.0591 18.2158C10.0209 18.177 9.99068 18.1309 9.97015 18.0803C9.94962 18.0296 9.93919 17.9754 9.93945 17.9207V15.8247C9.93945 15.5945 10.1225 15.4075 10.3507 15.4075H12.4346C12.4887 15.4076 12.5423 15.4184 12.5923 15.4395C12.6423 15.4605 12.6876 15.4913 12.7258 15.5301C12.7639 15.5688 12.7941 15.6148 12.8146 15.6654C12.8351 15.7159 12.8455 15.7701 12.8452 15.8247V17.9207ZM13.1559 14.0137H9.62904C9.34501 14.0132 9.0724 14.1265 8.87116 14.3287C8.66991 14.5309 8.55652 14.8055 8.5559 15.092V18.6517C8.5559 18.7938 8.58367 18.9346 8.63761 19.0659C8.69155 19.1972 8.77061 19.3164 8.87028 19.4169C8.96994 19.5174 9.08825 19.597 9.21844 19.6513C9.34864 19.7056 9.48816 19.7335 9.62904 19.7333H13.1559C13.4402 19.7333 13.7128 19.6193 13.9138 19.4164C14.1148 19.2136 14.2277 18.9385 14.2277 18.6517V15.092C14.227 14.8057 14.1138 14.5313 13.9128 14.3291C13.7119 14.1269 13.4397 14.0137 13.1559 14.0137Z" fill="white"/>
<path d="M24.4684 22.1653C24.4684 22.5249 24.3248 22.8478 24.0913 23.0836C23.972 23.2043 23.8302 23.3 23.6741 23.3651C23.518 23.4303 23.3506 23.4637 23.1817 23.4634H1.81831C1.64929 23.4635 1.48189 23.4301 1.3257 23.3649C1.16951 23.2997 1.0276 23.2041 0.908078 23.0836C0.788561 22.963 0.69379 22.8198 0.629188 22.6622C0.564587 22.5047 0.531424 22.3358 0.531599 22.1653V1.83406C0.53146 1.66353 0.564697 1.49466 0.629402 1.33712C0.694107 1.17958 0.789007 1.03648 0.908658 0.916028C1.028 0.795359 1.16979 0.699666 1.3259 0.634443C1.48201 0.569221 1.64935 0.535755 1.81831 0.535968H23.1817C23.3507 0.535792 23.518 0.569274 23.6741 0.634495C23.8302 0.699715 23.972 0.795389 24.0913 0.916028C24.2111 1.03628 24.306 1.17925 24.3708 1.33669C24.4355 1.49414 24.4687 1.66295 24.4684 1.83339V22.1653ZM24.4667 0.536971C24.2982 0.366415 24.0979 0.231167 23.8774 0.139012C23.6568 0.0468565 23.4204 -0.000386303 23.1817 2.37898e-06H1.81831C1.5796 -0.000386303 1.34317 0.0468565 1.12263 0.139012C0.902083 0.231167 0.701784 0.366415 0.533257 0.536971C0.364006 0.706969 0.229757 0.909061 0.138238 1.13161C0.0467195 1.35417 -0.000261101 1.59278 1.09142e-06 1.83373V22.1649C1.09142e-06 22.6711 0.203951 23.1315 0.533257 23.4624C0.701817 23.6329 0.902108 23.7682 1.12263 23.8605C1.34316 23.9527 1.57957 24.0002 1.81831 24H23.1817C23.4204 24.0002 23.6568 23.9527 23.8774 23.8605C24.0979 23.7682 24.2982 23.6329 24.4667 23.4624C24.6359 23.2923 24.7702 23.0901 24.8617 22.8675C24.9532 22.6449 25.0002 22.4063 25 22.1653V1.83406C25.0002 1.59308 24.9532 1.35443 24.8617 1.13183C24.7702 0.909234 24.6359 0.707075 24.4667 0.536971Z" fill="white"/>
</svg>
