<svg width="36" height="36" viewBox="0 0 36 36" fill="none" xmlns="http://www.w3.org/2000/svg">
<path d="M18 36C27.9411 36 36 27.9411 36 18C36 8.05888 27.9411 0 18 0C8.05888 0 0 8.05888 0 18C0 27.9411 8.05888 36 18 36Z" fill="white"/>
<path d="M30.0069 18.0001C30.0069 16.5395 28.8258 15.3796 27.3864 15.3796C26.6778 15.3796 26.0332 15.6587 25.5607 16.1099C23.7566 14.8211 21.2862 13.9835 18.5368 13.8762L19.7395 8.24841L23.6489 9.08602C23.6921 10.0742 24.5081 10.8689 25.5179 10.8689C26.5488 10.8689 27.3864 10.0313 27.3864 8.99993C27.3864 7.96895 26.5488 7.13135 25.5179 7.13135C24.7876 7.13135 24.1429 7.56096 23.8423 8.18395L19.4821 7.26027C19.3532 7.23865 19.2242 7.26027 19.1382 7.32473C19.0309 7.38919 18.9664 7.4965 18.9452 7.62542L17.6131 13.8974C14.8208 13.9835 12.3076 14.8211 10.4819 16.1315C9.99018 15.6619 9.33611 15.4003 8.65615 15.4012C7.19555 15.4012 6.03564 16.5824 6.03564 18.0218C6.03564 19.0956 6.67986 19.9976 7.58232 20.406C7.53908 20.6635 7.51786 20.9213 7.51786 21.2008C7.51786 25.2387 12.222 28.5254 18.0215 28.5254C23.821 28.5254 28.5251 25.2603 28.5251 21.2008C28.5251 20.9429 28.5035 20.6635 28.4607 20.406C29.3627 19.9976 30.0069 19.074 30.0069 18.0001ZM12.007 19.8687C12.007 18.8377 12.8446 18.0001 13.8759 18.0001C14.9069 18.0001 15.7445 18.8377 15.7445 19.8687C15.7445 20.8997 14.9069 21.7377 13.8759 21.7377C12.8446 21.7589 12.007 20.8997 12.007 19.8687ZM22.4677 24.8307C21.1789 26.1195 18.7302 26.2056 18.0215 26.2056C17.2912 26.2056 14.8425 26.0979 13.5748 24.8307C13.3819 24.6373 13.3819 24.3366 13.5748 24.1432C13.7682 23.9502 14.0689 23.9502 14.2623 24.1432C15.0787 24.9596 16.7971 25.2387 18.0215 25.2387C19.2459 25.2387 20.9855 24.9596 21.7803 24.1432C21.9737 23.9502 22.2744 23.9502 22.4677 24.1432C22.6395 24.3366 22.6395 24.6373 22.4677 24.8307ZM22.1238 21.7589C21.0928 21.7589 20.2552 20.9213 20.2552 19.8903C20.2552 18.8594 21.0928 18.0218 22.1238 18.0218C23.1552 18.0218 23.9928 18.8594 23.9928 19.8903C23.9928 20.8997 23.1552 21.7589 22.1238 21.7589Z" fill="#040404"/>
</svg>
