<svg width="24" height="24" viewBox="0 0 24 24" fill="none" xmlns="http://www.w3.org/2000/svg">
<path d="M12 24C18.6274 24 24 18.6274 24 12C24 5.37258 18.6274 0 12 0C5.37258 0 0 5.37258 0 12C0 18.6274 5.37258 24 12 24Z" fill="white"/>
<path d="M20.0045 12C20.0045 11.0263 19.2171 10.253 18.2575 10.253C17.7851 10.253 17.3554 10.439 17.0404 10.7399C15.8376 9.88065 14.1907 9.32225 12.3578 9.25071L13.1596 5.49886L15.7658 6.05726C15.7947 6.71603 16.3386 7.24586 17.0118 7.24586C17.6991 7.24586 18.2575 6.68746 18.2575 5.99987C18.2575 5.31255 17.6991 4.75415 17.0118 4.75415C16.525 4.75415 16.0952 5.04056 15.8948 5.45589L12.988 4.8401C12.902 4.82569 12.8161 4.8401 12.7587 4.88307C12.6872 4.92605 12.6442 4.99758 12.63 5.08353L11.742 9.26486C9.88048 9.32225 8.20501 9.88065 6.98785 10.7543C6.66004 10.4412 6.22399 10.2668 5.77068 10.2674C4.79695 10.2674 4.02368 11.0548 4.02368 12.0144C4.02368 12.7303 4.45316 13.3317 5.0548 13.6039C5.02597 13.7756 5.01183 13.9475 5.01183 14.1338C5.01183 16.8257 8.14789 19.0168 12.0142 19.0168C15.8806 19.0168 19.0167 16.8401 19.0167 14.1338C19.0167 13.9619 19.0023 13.7756 18.9737 13.6039C19.5751 13.3317 20.0045 12.7159 20.0045 12ZM8.00455 13.2457C8.00455 12.5584 8.56295 12 9.25054 12C9.93787 12 10.4963 12.5584 10.4963 13.2457C10.4963 13.9331 9.93787 14.4917 9.25054 14.4917C8.56295 14.5059 8.00455 13.9331 8.00455 13.2457ZM14.9784 16.5537C14.1192 17.4129 12.4867 17.4703 12.0142 17.4703C11.5274 17.4703 9.89489 17.3985 9.04982 16.5537C8.92116 16.4248 8.92116 16.2243 9.04982 16.0954C9.17874 15.9667 9.3792 15.9667 9.50812 16.0954C10.0524 16.6396 11.198 16.8257 12.0142 16.8257C12.8305 16.8257 13.9903 16.6396 14.5201 16.0954C14.649 15.9667 14.8495 15.9667 14.9784 16.0954C15.0929 16.2243 15.0929 16.4248 14.9784 16.5537ZM14.7491 14.5059C14.0618 14.5059 13.5034 13.9475 13.5034 13.2601C13.5034 12.5728 14.0618 12.0144 14.7491 12.0144C15.4367 12.0144 15.9951 12.5728 15.9951 13.2601C15.9951 13.9331 15.4367 14.5059 14.7491 14.5059Z" fill="#040404"/>
</svg>
