<svg width="16" height="16" viewBox="0 0 16 16" fill="none" xmlns="http://www.w3.org/2000/svg">
<path d="M3.3171 10.692C3.13038 10.8786 3.02545 11.1318 3.02539 11.3959V12.4771C3.02539 12.6091 3.07784 12.7357 3.17119 12.8291C3.26455 12.9225 3.39117 12.9749 3.5232 12.9749H5.01661C5.14864 12.9749 5.27526 12.9225 5.36862 12.8291C5.46197 12.7357 5.51442 12.6091 5.51442 12.4771V11.9793C5.51442 11.8473 5.56687 11.7207 5.66022 11.6273C5.75358 11.5339 5.8802 11.4815 6.01223 11.4815H6.51003C6.64206 11.4815 6.76868 11.429 6.86203 11.3357C6.95539 11.2423 7.00784 11.1157 7.00784 10.9837V10.4859C7.00784 10.3539 7.06028 10.2272 7.15364 10.1339C7.247 10.0405 7.37362 9.98808 7.50564 9.98808H7.59126C7.8553 9.98802 8.10849 9.88309 8.29516 9.69636L8.70038 9.29115C9.39224 9.53216 10.1454 9.53124 10.8367 9.28853C11.528 9.04583 12.1164 8.57572 12.5058 7.9551C12.8951 7.33448 13.0624 6.6001 12.9801 5.87209C12.8978 5.14408 12.5709 4.46554 12.0528 3.94749C11.5348 3.42943 10.8562 3.10252 10.1282 3.02023C9.40021 2.93795 8.66582 3.10516 8.0452 3.49452C7.42458 3.88388 6.95447 4.47232 6.71177 5.1636C6.46906 5.85488 6.46814 6.60806 6.70915 7.29992L3.3171 10.692Z" stroke="white" stroke-width="0.995612" stroke-linecap="round" stroke-linejoin="round"/>
<path d="M10.243 6.0055C10.3805 6.0055 10.4919 5.89406 10.4919 5.75659C10.4919 5.61913 10.3805 5.50769 10.243 5.50769C10.1056 5.50769 9.99414 5.61913 9.99414 5.75659C9.99414 5.89406 10.1056 6.0055 10.243 6.0055Z" fill="white" stroke="white" stroke-width="0.995612" stroke-linecap="round" stroke-linejoin="round"/>
</svg>
