<svg width="129" height="36" viewBox="0 0 129 36" fill="none" xmlns="http://www.w3.org/2000/svg">
<path d="M17.9796 0C8.48018 0 0.733862 7.28136 0 16.5559L9.66251 20.5424C10.4779 19.9729 11.4564 19.6475 12.5164 19.6475C12.598 19.6475 12.7203 19.6475 12.8018 19.6475L17.1234 13.4644C17.1234 13.4237 17.1234 13.4237 17.1234 13.3831C17.1234 9.64068 20.1812 6.58983 23.9321 6.58983C27.6829 6.58983 30.7407 9.64068 30.7407 13.3831C30.7407 17.1254 27.6829 20.1763 23.9321 20.1763C23.8913 20.1763 23.8097 20.1763 23.769 20.1763L17.6535 24.5288C17.6535 24.6102 17.6535 24.6915 17.6535 24.7729C17.6535 27.5797 15.3703 29.8576 12.5572 29.8576C10.0702 29.8576 8.03171 28.1085 7.54247 25.7492L0.611552 22.9017C2.7316 30.4678 9.70328 36 17.9796 36C27.9275 36 36 27.9458 36 18.0203C36 8.05424 27.9275 0 17.9796 0Z" fill="white"/>
<path d="M11.2934 27.295L9.0918 26.4001C9.4995 27.2137 10.1518 27.9052 11.0488 28.2713C13.0057 29.0849 15.2481 28.1493 16.0635 26.1967C16.4712 25.2611 16.4712 24.2035 16.0635 23.2679C15.6558 22.3323 14.9219 21.6001 13.9842 21.1934C13.0465 20.7866 12.0272 20.8273 11.1711 21.1527L13.4542 22.0883C14.8812 22.6984 15.5742 24.3256 14.9627 25.7493C14.3919 27.2137 12.7203 27.9052 11.2934 27.295Z" fill="white"/>
<path d="M28.4575 13.3424C28.4575 10.861 26.419 8.82715 23.932 8.82715C21.445 8.82715 19.4065 10.861 19.4065 13.3424C19.4065 15.8238 21.445 17.8577 23.932 17.8577C26.419 17.8577 28.4575 15.8644 28.4575 13.3424ZM20.5073 13.3424C20.5073 11.4712 22.0158 9.96613 23.932 9.96613C25.8482 9.96613 27.3567 11.4712 27.3567 13.3424C27.3567 15.2136 25.8482 16.7187 23.932 16.7187C22.0158 16.7187 20.5073 15.2136 20.5073 13.3424Z" fill="white"/>
<path d="M62.2673 10.6475V7.17647C62.2673 6.62393 62.0053 6.36795 61.4621 6.36795H60.5765V11.456H61.4621C62.0061 11.456 62.2673 11.2 62.2673 10.6475Z" fill="white"/>
<path d="M59.3914 22.9634L58.9093 24.153H59.8685L59.3914 22.9634Z" fill="white"/>
<path d="M76.6191 0H50.8809C48.77 0 48 0.759647 48 2.81823V27.9106C48 28.2337 48.0586 28.8144 48.1649 29.0629C48.2712 29.3115 48.3699 29.5152 48.5666 29.6967C48.77 29.8839 49.1216 30.0786 49.2906 30.1548L62.9344 35.8368C63.1855 35.942 63.4608 36 63.7496 36C64.0392 36 64.3145 35.942 64.5648 35.8368L78.2094 30.1539C78.3784 30.0777 78.73 29.8831 78.9334 29.6958C79.1301 29.5144 79.2288 29.3106 79.3351 29.0621C79.4414 28.8136 79.5 28.2329 79.5 27.9098V2.81823C79.5 0.759647 78.73 0 76.6191 0ZM65.3934 4.51481H67.5478V18.3185H65.3934V4.51481ZM65.5047 21.6189H66.7569V25.8023H65.5776V23.3991L64.4836 25.0369H64.4593L63.3713 23.4116V25.8023H62.2104V21.6189H63.4625L64.4828 23.2384L65.5047 21.6189ZM58.4222 4.51481H61.8044C63.5562 4.51481 64.4217 5.36227 64.4217 7.07872V10.7469C64.4217 12.4625 63.5562 13.31 61.8044 13.31H60.5766V18.3185H58.4222V4.51481ZM52.5499 4.51481H57.3416V6.42759H54.7043V10.3327H57.2403V12.2455H54.7043V16.4066H57.3818V18.3194H52.5499V4.51481ZM56.6318 25.2448C56.4033 25.4279 56.1347 25.582 55.825 25.7054C55.5153 25.8288 55.1654 25.891 54.7737 25.891C54.4398 25.891 54.1309 25.8371 53.848 25.7294C53.5643 25.6217 53.3199 25.4726 53.1115 25.2813C52.9039 25.0899 52.7407 24.8621 52.6227 24.597C52.5047 24.3327 52.4461 24.042 52.4461 23.728V23.7156C52.4461 23.4091 52.5038 23.1233 52.6202 22.8607C52.7365 22.5981 52.8964 22.3678 53.0998 22.1706C53.304 21.9734 53.5467 21.8194 53.8296 21.7075C54.1125 21.5965 54.4189 21.5402 54.7486 21.5402C55.1278 21.5402 55.4542 21.594 55.7296 21.7017C56.0041 21.8094 56.256 21.9585 56.4845 22.1499L55.7882 22.9684C55.6333 22.8408 55.4751 22.743 55.3144 22.6759C55.1537 22.608 54.9671 22.574 54.7553 22.574C54.6005 22.574 54.4574 22.6039 54.3243 22.6635C54.192 22.7232 54.0774 22.8052 53.9794 22.9087C53.8815 23.0123 53.8045 23.134 53.7476 23.2732C53.6907 23.4124 53.6622 23.5623 53.6622 23.7214V23.7338C53.6622 23.9011 53.6907 24.0569 53.7476 24.1994C53.8045 24.3427 53.8857 24.4653 53.9886 24.5672C54.0924 24.6691 54.2146 24.7486 54.3552 24.8066C54.4959 24.8638 54.6515 24.8936 54.8231 24.8936C55.1002 24.8936 55.3278 24.8364 55.5078 24.7204V24.2126H54.6649V23.361H56.6318V25.2448ZM57.0085 25.8023L58.8306 21.5882H59.9731L61.7944 25.8023H60.5238L60.2116 25.0551H58.5619L58.2564 25.8023H57.0085ZM68.9498 30.4323C68.9439 30.4455 68.9356 30.4571 68.9255 30.4671C68.9155 30.477 68.9037 30.4853 68.8904 30.4903L63.912 32.5638C63.8584 32.5861 63.7998 32.5986 63.7387 32.5986C63.6776 32.5986 63.619 32.5861 63.5654 32.5638L58.6255 30.4903C58.6122 30.4845 58.6004 30.4762 58.5904 30.4671C58.5803 30.4571 58.572 30.4455 58.5661 30.4323C58.5603 30.419 58.5578 30.405 58.5578 30.3892C58.5578 30.3735 58.5611 30.3594 58.5661 30.3461C58.572 30.3329 58.5803 30.3213 58.5904 30.3113C58.6004 30.3014 58.6122 30.2931 58.6255 30.2873C58.6389 30.2815 58.6532 30.279 58.6691 30.279H68.8468C68.8619 30.279 68.877 30.2823 68.8904 30.2873C68.9037 30.2931 68.9155 30.3006 68.9255 30.3113C68.9356 30.3213 68.9439 30.3329 68.9498 30.3461C68.9556 30.3594 68.9581 30.3735 68.9581 30.3892C68.9581 30.405 68.9548 30.419 68.9498 30.4323ZM71.0205 25.8023H67.5495V21.6189H70.9895V22.6055H68.7221V23.2392H70.7752V24.1538H68.7221V24.8174H71.0196V25.8023H71.0205ZM68.6861 15.8731V6.95943C68.6861 5.2438 69.5524 4.39552 71.3034 4.39552H72.3505C74.1023 4.39552 74.9476 5.22392 74.9476 6.93955V9.75944H72.8342V7.05801C72.8342 6.50547 72.5723 6.24949 72.0291 6.24949H71.6666C71.1025 6.24949 70.8414 6.50547 70.8414 7.05801V15.7745C70.8414 16.327 71.1033 16.583 71.6666 16.583H72.0692C72.6124 16.583 72.8744 16.327 72.8744 15.7745V12.6589H74.9886V15.8731C74.9886 17.5887 74.1232 18.437 72.3714 18.437H71.3042C69.5524 18.437 68.6861 17.5895 68.6861 15.8731ZM75.0698 24.515C75.0698 24.7304 75.028 24.9217 74.9443 25.0891C74.8606 25.2564 74.7434 25.3989 74.5927 25.5165C74.4421 25.6342 74.2613 25.7236 74.0487 25.7858C73.8369 25.8479 73.6009 25.8785 73.3398 25.8785C72.9564 25.8785 72.5932 25.8214 72.2492 25.7054C71.9052 25.5894 71.6005 25.4163 71.336 25.1852L71.9956 24.4139C72.4233 24.7486 72.8853 24.9159 73.3825 24.9159C73.5415 24.9159 73.6629 24.8911 73.7457 24.8414C73.8294 24.7917 73.8713 24.7213 73.8713 24.6293V24.6169C73.8713 24.573 73.8604 24.534 73.8403 24.5009C73.8202 24.4669 73.7825 24.4346 73.7273 24.4023C73.6721 24.37 73.5984 24.3394 73.508 24.3095C73.4159 24.2797 73.2979 24.2491 73.1506 24.2168C72.9221 24.1646 72.7104 24.1082 72.5153 24.0469C72.3203 23.9848 72.1496 23.9053 72.0048 23.8075C71.86 23.7098 71.7462 23.588 71.6625 23.443C71.5788 23.2981 71.5369 23.1166 71.5369 22.9021V22.8897C71.5369 22.695 71.5746 22.5152 71.6499 22.3512C71.7252 22.1872 71.8357 22.0463 71.9797 21.9271C72.1236 21.8078 72.2986 21.715 72.502 21.6487C72.7062 21.5833 72.9363 21.5501 73.1925 21.5501C73.5591 21.5501 73.8863 21.5965 74.1734 21.691C74.4605 21.7854 74.72 21.9229 74.9526 22.1068L74.3601 22.9253C74.165 22.7894 73.9642 22.6875 73.7583 22.6171C73.5524 22.5475 73.354 22.5119 73.1632 22.5119C73.0209 22.5119 72.9129 22.5384 72.8426 22.5898C72.7715 22.6411 72.7355 22.7058 72.7355 22.7811V22.7936C72.7355 22.8416 72.7464 22.883 72.769 22.9187C72.7915 22.9543 72.8301 22.9874 72.8853 23.0172C72.9405 23.0471 73.0159 23.0777 73.1113 23.1067C73.2067 23.1365 73.3281 23.1672 73.4745 23.1995C73.7189 23.2508 73.9399 23.3121 74.1374 23.3817C74.335 23.4513 74.5023 23.5366 74.6421 23.6352C74.7802 23.7346 74.8865 23.8548 74.9593 23.9972C75.033 24.1389 75.0698 24.3071 75.0698 24.5026V24.515Z" fill="white"/>
<path fill-rule="evenodd" clip-rule="evenodd" d="M102.673 23.1112H98.3108C98.2296 23.1113 98.1491 23.1275 98.0741 23.1591C97.999 23.1906 97.9309 23.2367 97.8736 23.2949C97.8163 23.353 97.7709 23.422 97.7401 23.4979C97.7093 23.5738 97.6936 23.655 97.694 23.737C97.694 23.737 97.6955 23.737 97.6955 23.741H97.694V26.881H97.6955L97.694 26.8836C97.694 27.2278 97.9686 27.5109 98.3108 27.5109H102.673V29.6055H97.2299V29.6005C97.0185 29.6008 96.809 29.559 96.6136 29.4776C96.4181 29.3961 96.2405 29.2766 96.0909 29.1259C95.9413 28.9752 95.8225 28.7962 95.7415 28.5991C95.6605 28.4021 95.6188 28.1909 95.6187 27.9776V22.638C95.62 22.208 95.7904 21.7962 96.0925 21.4929C96.3946 21.1897 96.8037 21.0198 97.2299 21.0206H102.673V23.1112Z" fill="white"/>
<path fill-rule="evenodd" clip-rule="evenodd" d="M104.248 17.2798C104.249 17.4963 104.207 17.7106 104.125 17.9106C104.043 18.1106 103.923 18.2923 103.771 18.4454C103.619 18.5985 103.439 18.7199 103.241 18.8027C103.043 18.8855 102.83 18.928 102.616 18.9279H95.6138V16.8051H101.517C101.864 16.8051 102.143 16.5186 102.143 16.1698V9.15204C102.143 8.80226 101.864 8.51872 101.517 8.51872H98.3448C98.2625 8.51878 98.1809 8.53522 98.1049 8.5671C98.0289 8.59898 97.9599 8.64566 97.9017 8.70448C97.8436 8.7633 97.7976 8.83311 97.7662 8.90991C97.7348 8.9867 97.7188 9.06898 97.719 9.15204V12.3457C97.7186 12.429 97.7345 12.5114 97.7658 12.5884C97.797 12.6654 97.843 12.7354 97.9012 12.7945C97.9593 12.8535 98.0284 12.9003 98.1045 12.9324C98.1807 12.9644 98.2623 12.9809 98.3448 12.9811H100.879V15.1039H97.2464C97.032 15.1041 96.8197 15.0617 96.6215 14.9791C96.4234 14.8964 96.2434 14.7751 96.0918 14.6222C95.9402 14.4692 95.82 14.2876 95.738 14.0877C95.6561 13.8879 95.6141 13.6736 95.6143 13.4573V8.04147C95.6141 7.82514 95.6562 7.61089 95.7382 7.41098C95.8201 7.21107 95.9403 7.02941 96.0919 6.87639C96.2434 6.72338 96.4234 6.60201 96.6215 6.51922C96.8197 6.43644 97.032 6.39386 97.2464 6.39393H102.616C103.049 6.39406 103.464 6.5677 103.77 6.87666C104.076 7.18562 104.248 7.6046 104.248 8.04147V17.2798Z" fill="white"/>
<path fill-rule="evenodd" clip-rule="evenodd" d="M124.879 29.601H122.804V23.1122H121.346C121.265 23.1121 121.185 23.1283 121.11 23.1597C121.034 23.1911 120.966 23.2372 120.909 23.2953C120.851 23.3534 120.806 23.4224 120.775 23.4983C120.744 23.5742 120.728 23.6555 120.729 23.7375V29.601H118.654V23.1122H117.195C117.114 23.1123 117.034 23.1285 116.959 23.16C116.883 23.1915 116.815 23.2376 116.758 23.2956C116.701 23.3537 116.655 23.4226 116.624 23.4984C116.593 23.5743 116.577 23.6555 116.578 23.7375V29.6065H114.503V22.639C114.504 22.2092 114.674 21.7973 114.976 21.4939C115.277 21.1905 115.686 21.0204 116.112 21.021H124.879L124.879 29.601Z" fill="white"/>
<path fill-rule="evenodd" clip-rule="evenodd" d="M124.884 17.2798C124.884 17.4962 124.842 17.7105 124.76 17.9105C124.679 18.1105 124.558 18.2922 124.407 18.4452C124.255 18.5983 124.075 18.7197 123.877 18.8025C123.679 18.8854 123.466 18.9279 123.252 18.9279H116.25V16.8051H122.153C122.501 16.8051 122.782 16.5186 122.782 16.1698V9.15204C122.782 9.06877 122.766 8.9863 122.734 8.90937C122.703 8.83243 122.656 8.76255 122.598 8.70371C122.539 8.64488 122.47 8.59825 122.394 8.5665C122.317 8.53476 122.236 8.51852 122.153 8.51872H118.982C118.816 8.51938 118.657 8.58643 118.54 8.70516C118.423 8.82389 118.357 8.9846 118.357 9.15204V12.3458C118.357 12.6965 118.638 12.9811 118.982 12.9811H121.514V15.1039H117.883C117.669 15.1041 117.456 15.0616 117.258 14.979C117.06 14.8963 116.88 14.775 116.728 14.6221C116.577 14.4692 116.456 14.2876 116.374 14.0877C116.292 13.8879 116.25 13.6737 116.25 13.4573V8.04147C116.25 7.82503 116.292 7.61069 116.374 7.41071C116.456 7.21073 116.577 7.02903 116.728 6.87601C116.88 6.72299 117.06 6.60165 117.258 6.51893C117.457 6.43621 117.669 6.39373 117.884 6.39393H123.252C123.684 6.39433 124.099 6.56807 124.406 6.87698C124.712 7.1859 124.883 7.60473 124.884 8.04147L124.884 17.2798Z" fill="white"/>
<path fill-rule="evenodd" clip-rule="evenodd" d="M112.457 12.3458C112.458 12.4288 112.443 12.5112 112.412 12.5882C112.382 12.6653 112.336 12.7354 112.278 12.7945C112.221 12.8537 112.152 12.9007 112.076 12.9328C112 12.9649 111.919 12.9815 111.836 12.9816H108.665C108.583 12.9816 108.501 12.965 108.425 12.933C108.348 12.901 108.279 12.8541 108.221 12.795C108.163 12.736 108.117 12.6659 108.085 12.5888C108.054 12.5117 108.038 12.4291 108.038 12.3458V9.15208C108.038 8.8023 108.317 8.51926 108.665 8.51926H111.836C111.918 8.51925 112 8.53567 112.075 8.56755C112.151 8.59943 112.22 8.64615 112.278 8.705C112.335 8.76385 112.381 8.83366 112.412 8.9104C112.443 8.98714 112.458 9.06928 112.457 9.15208V12.3458ZM112.935 6.39497H107.565C107.351 6.39503 107.138 6.43769 106.94 6.52051C106.742 6.60332 106.563 6.72467 106.411 6.87761C106.26 7.03056 106.14 7.21212 106.058 7.4119C105.976 7.61169 105.934 7.82581 105.934 8.04201V13.4579C105.933 13.6741 105.975 13.8883 106.057 14.0882C106.139 14.2881 106.259 14.4697 106.411 14.6227C106.562 14.7757 106.742 14.897 106.94 14.9798C107.138 15.0625 107.351 15.105 107.565 15.1049H112.935C113.368 15.1045 113.782 14.9308 114.088 14.622C114.394 14.3132 114.566 13.8945 114.566 13.4579V8.04201C114.566 7.60544 114.394 7.18682 114.088 6.87802C113.782 6.56923 113.367 6.3955 112.935 6.39497Z" fill="white"/>
<path fill-rule="evenodd" clip-rule="evenodd" d="M110.768 26.8811C110.768 26.963 110.753 27.0443 110.722 27.1202C110.691 27.1961 110.646 27.2651 110.589 27.3234C110.531 27.3816 110.463 27.4279 110.388 27.4597C110.314 27.4914 110.233 27.508 110.152 27.5084C110.149 27.5084 110.148 27.5048 110.145 27.5048V27.5084H107.033V27.5048C107.033 27.5048 107.029 27.5084 107.026 27.5084C106.945 27.5081 106.864 27.4916 106.789 27.46C106.714 27.4283 106.646 27.382 106.589 27.3237C106.531 27.2655 106.486 27.1964 106.455 27.1204C106.424 27.0445 106.409 26.9631 106.409 26.8811V23.737C106.409 23.3918 106.684 23.1112 107.026 23.1112H110.152C110.233 23.1114 110.314 23.1277 110.388 23.1592C110.463 23.1908 110.531 23.2369 110.589 23.2951C110.646 23.3532 110.691 23.4222 110.722 23.498C110.753 23.5739 110.768 23.6551 110.768 23.737V26.8811ZM111.234 21.0206H105.944C105.518 21.0198 105.109 21.1897 104.807 21.493C104.505 21.7963 104.335 22.2082 104.334 22.638V27.9776C104.334 28.1908 104.375 28.4019 104.456 28.5988C104.537 28.7957 104.656 28.9747 104.805 29.1254C104.955 29.276 105.132 29.3955 105.328 29.477C105.523 29.5584 105.732 29.6002 105.944 29.6H111.234C111.66 29.5999 112.069 29.4289 112.371 29.1246C112.672 28.8204 112.842 28.4078 112.842 27.9776V22.638C112.841 22.2085 112.671 21.797 112.369 21.4937C112.068 21.1904 111.66 21.0206 111.234 21.0206Z" fill="white"/>
<path d="M128.203 33.2479C128.203 33.7874 127.987 34.2717 127.637 34.6255C127.458 34.8065 127.245 34.95 127.011 35.0477C126.777 35.1455 126.526 35.1955 126.273 35.1951H94.2275C93.9739 35.1953 93.7228 35.1451 93.4886 35.0474C93.2543 34.9496 93.0414 34.8062 92.8621 34.6253C92.6828 34.4445 92.5407 34.2297 92.4438 33.9934C92.3469 33.757 92.2971 33.5037 92.2974 33.2479V2.75109C92.2972 2.4953 92.347 2.24199 92.4441 2.00568C92.5412 1.76937 92.6835 1.55472 92.863 1.37404C93.042 1.19304 93.2547 1.0495 93.4888 0.951665C93.723 0.853832 93.974 0.803633 94.2275 0.803951H126.273C126.526 0.803688 126.777 0.853912 127.011 0.951742C127.245 1.04957 127.458 1.19308 127.637 1.37404C127.817 1.55442 127.959 1.76887 128.056 2.00504C128.153 2.24121 128.203 2.49442 128.203 2.75009V33.2479ZM128.2 0.805457C127.947 0.549622 127.647 0.34675 127.316 0.208518C126.985 0.0702847 126.631 -0.000579455 126.273 3.56847e-06H94.2275C93.8694 -0.000579455 93.5148 0.0702847 93.1839 0.208518C92.8531 0.34675 92.5527 0.549622 92.2999 0.805457C92.046 1.06045 91.8446 1.36359 91.7074 1.69742C91.5701 2.03125 91.4996 2.38917 91.5 2.75059V33.2474C91.5 34.0067 91.8059 34.6972 92.2999 35.1935C92.5527 35.4494 92.8532 35.6523 93.1839 35.7907C93.5147 35.9291 93.8694 36.0002 94.2275 36H126.273C126.631 36.0002 126.985 35.9291 127.316 35.7907C127.647 35.6523 127.947 35.4494 128.2 35.1935C128.454 34.9384 128.655 34.6352 128.793 34.3013C128.93 33.9674 129 33.6094 129 33.2479V2.75109C129 2.38962 128.93 2.03164 128.793 1.69775C128.655 1.36385 128.454 1.06061 128.2 0.805457Z" fill="white"/>
</svg>
