<svg width="186" height="53" viewBox="0 0 186 53" fill="none" xmlns="http://www.w3.org/2000/svg">
<path d="M26.47 0C12.4847 0 1.08041 10.7198 0 24.374L14.2254 30.2429C15.4258 29.4045 16.8664 28.9254 18.427 28.9254C18.547 28.9254 18.7271 28.9254 18.8471 28.9254L25.2095 19.8226C25.2095 19.7627 25.2095 19.7627 25.2095 19.7028C25.2095 14.1932 29.7112 9.7017 35.2333 9.7017C40.7554 9.7017 45.2571 14.1932 45.2571 19.7028C45.2571 25.2124 40.7554 29.704 35.2333 29.704C35.1733 29.704 35.0532 29.704 34.9932 29.704L25.9898 36.1119C25.9898 36.2316 25.9898 36.3514 25.9898 36.4712C25.9898 40.6034 22.6285 43.9571 18.487 43.9571C14.8256 43.9571 11.8245 41.3819 11.1042 37.9085L0.90034 33.7164C4.02152 44.8554 14.2854 53 26.47 53C41.1155 53 53 41.1424 53 26.5299C53 11.8576 41.1155 0 26.47 0Z" fill="white"/>
<path d="M16.6262 40.1842L13.385 38.8667C13.9852 40.0644 14.9456 41.0825 16.2661 41.6215C19.1472 42.8192 22.4484 41.4418 23.6489 38.5673C24.2491 37.1898 24.2491 35.6328 23.6489 34.2554C23.0487 32.878 21.9682 31.8 20.5877 31.2011C19.2072 30.6023 17.7066 30.6622 16.4462 31.1413L19.8074 32.5187C21.9082 33.417 22.9286 35.8124 22.0283 37.9085C21.188 40.0644 18.727 41.0825 16.6262 40.1842Z" fill="white"/>
<path d="M41.8956 19.6429C41.8956 15.9898 38.8945 12.9955 35.2331 12.9955C31.5717 12.9955 28.5706 15.9898 28.5706 19.6429C28.5706 23.296 31.5717 26.2904 35.2331 26.2904C38.8945 26.2904 41.8956 23.3559 41.8956 19.6429ZM30.1912 19.6429C30.1912 16.8881 32.412 14.6723 35.2331 14.6723C38.0541 14.6723 40.275 16.8881 40.275 19.6429C40.275 22.3977 38.0541 24.6136 35.2331 24.6136C32.412 24.6136 30.1912 22.3977 30.1912 19.6429Z" fill="white"/>
<path d="M89.8347 15.6755V10.5654C89.8347 9.75189 89.4522 9.37504 88.6589 9.37504H87.3657V16.8658H88.6589C89.4534 16.8658 89.8347 16.4889 89.8347 15.6755Z" fill="white"/>
<path d="M85.635 33.8072L84.931 35.5585H86.3317L85.635 33.8072Z" fill="white"/>
<path d="M110.793 0H73.207C70.1245 0 69 1.11837 69 4.14907V41.0906C69 41.5663 69.0856 42.4212 69.2408 42.7871C69.396 43.153 69.5402 43.453 69.8275 43.7201C70.1245 43.9957 70.6378 44.2823 70.8847 44.3945L90.8089 52.7597C91.1756 52.9146 91.5777 53 91.9994 53C92.4223 53 92.8244 52.9146 93.1899 52.7597L113.115 44.3933C113.362 44.2811 113.876 43.9945 114.173 43.7189C114.46 43.4518 114.604 43.1518 114.759 42.7859C114.914 42.42 115 41.5651 115 41.0894V4.14907C115 1.11837 113.876 0 110.793 0ZM94.3999 6.6468H97.546V26.9689H94.3999V6.6468ZM94.5625 31.8278H96.391V37.9868H94.6688V34.4487L93.0713 36.8599H93.0359L91.4469 34.467V37.9868H89.7516V31.8278H91.5802L93.0701 34.2121L94.5625 31.8278ZM84.2197 6.6468H89.1588C91.717 6.6468 92.9809 7.89445 92.9809 10.4215V15.8218C92.9809 18.3476 91.717 19.5953 89.1588 19.5953H87.3658V26.9689H84.2197V6.6468ZM75.6442 6.6468H82.6417V9.46285H78.7904V15.212H82.4938V18.0281H78.7904V24.1541H82.7004V26.9702H75.6442V6.6468ZM81.6052 37.166C81.2716 37.4355 80.8792 37.6624 80.427 37.8441C79.9747 38.0258 79.4638 38.1173 78.8918 38.1173C78.4041 38.1173 77.9531 38.038 77.54 37.8794C77.1256 37.7209 76.7687 37.5014 76.4644 37.2196C76.1613 36.9379 75.9229 36.6025 75.7506 36.2123C75.5782 35.8232 75.4927 35.3951 75.4927 34.9329V34.9146C75.4927 34.4634 75.577 34.0426 75.7469 33.656C75.9168 33.2694 76.1503 32.9303 76.4473 32.6401C76.7455 32.3498 77.1 32.1229 77.5131 31.9583C77.9262 31.7949 78.3736 31.7119 78.8551 31.7119C79.4088 31.7119 79.8855 31.7912 80.2876 31.9498C80.6885 32.1083 81.0564 32.3278 81.3901 32.6096L80.3732 33.8145C80.1471 33.6267 79.9161 33.4828 79.6814 33.384C79.4467 33.284 79.1741 33.234 78.8649 33.234C78.6388 33.234 78.4298 33.2779 78.2354 33.3657C78.0423 33.4535 77.8749 33.5743 77.7319 33.7267C77.5889 33.8792 77.4764 34.0584 77.3933 34.2633C77.3102 34.4682 77.2686 34.689 77.2686 34.9231V34.9414C77.2686 35.1878 77.3102 35.4171 77.3933 35.6268C77.4764 35.8378 77.595 36.0183 77.7453 36.1684C77.8969 36.3184 78.0753 36.4354 78.2807 36.5208C78.486 36.605 78.7134 36.6489 78.9639 36.6489C79.3685 36.6489 79.7009 36.5647 79.9637 36.394V35.6464H78.7329V34.3926H81.6052V37.166ZM82.1553 37.9868L84.8161 31.7827H86.4845L89.1442 37.9868H87.2888L86.8329 36.8867H84.4238L83.9777 37.9868H82.1553ZM99.5933 44.8031C99.5848 44.8226 99.5726 44.8397 99.5579 44.8543C99.5432 44.8689 99.5261 44.8811 99.5065 44.8885L92.2365 47.9411C92.1583 47.974 92.0727 47.9923 91.9835 47.9923C91.8943 47.9923 91.8087 47.974 91.7305 47.9411L84.5167 44.8885C84.4971 44.8799 84.48 44.8677 84.4653 44.8543C84.4507 44.8397 84.4384 44.8226 84.4299 44.8031C84.4213 44.7836 84.4177 44.7628 84.4177 44.7397C84.4177 44.7165 84.4226 44.6958 84.4299 44.6763C84.4384 44.6567 84.4507 44.6397 84.4653 44.625C84.48 44.6104 84.4971 44.5982 84.5167 44.5897C84.5362 44.5811 84.557 44.5775 84.5802 44.5775H99.443C99.465 44.5775 99.487 44.5823 99.5065 44.5897C99.5261 44.5982 99.5432 44.6092 99.5579 44.625C99.5726 44.6397 99.5848 44.6567 99.5933 44.6763C99.6019 44.6958 99.6056 44.7165 99.6056 44.7397C99.6056 44.7628 99.6007 44.7836 99.5933 44.8031ZM102.617 37.9868H97.5485V31.8278H102.572V33.2803H99.2609V34.2133H102.259V35.5598H99.2609V36.5367H102.616V37.9868H102.617ZM99.2083 23.3687V10.2458C99.2083 7.72005 100.473 6.47118 103.03 6.47118H104.559C107.118 6.47118 108.352 7.69077 108.352 10.2166V14.3681H105.266V10.391C105.266 9.57749 104.883 9.20063 104.09 9.20063H103.561C102.737 9.20063 102.356 9.57749 102.356 10.391V23.2236C102.356 24.037 102.738 24.4139 103.561 24.4139H104.149C104.942 24.4139 105.325 24.037 105.325 23.2236V18.6367H108.412V23.3687C108.412 25.8945 107.148 27.1433 104.59 27.1433H103.032C100.473 27.1433 99.2083 25.8957 99.2083 23.3687ZM108.531 36.0915C108.531 36.4086 108.469 36.6903 108.347 36.9367C108.225 37.1831 108.054 37.3928 107.834 37.566C107.614 37.7392 107.35 37.8709 107.039 37.9624C106.73 38.0538 106.385 38.099 106.004 38.099C105.444 38.099 104.914 38.0148 104.412 37.8441C103.909 37.6733 103.464 37.4184 103.078 37.0782L104.041 35.9427C104.666 36.4354 105.34 36.6818 106.066 36.6818C106.299 36.6818 106.476 36.6452 106.597 36.572C106.719 36.4989 106.78 36.3952 106.78 36.2598V36.2415C106.78 36.1769 106.764 36.1196 106.735 36.0708C106.706 36.0208 106.651 35.9732 106.57 35.9257C106.489 35.8781 106.382 35.833 106.25 35.7891C106.115 35.7452 105.943 35.7 105.728 35.6525C105.394 35.5756 105.085 35.4927 104.8 35.4024C104.515 35.311 104.266 35.1939 104.055 35.05C103.843 34.9061 103.677 34.7268 103.555 34.5134C103.432 34.2999 103.371 34.0328 103.371 33.717V33.6987C103.371 33.4121 103.426 33.1474 103.536 32.9059C103.646 32.6644 103.808 32.4571 104.018 32.2815C104.228 32.1059 104.484 31.9693 104.781 31.8717C105.079 31.7754 105.415 31.7266 105.789 31.7266C106.324 31.7266 106.802 31.7949 107.221 31.9339C107.641 32.0729 108.02 32.2754 108.359 32.5461L107.494 33.7511C107.209 33.5511 106.916 33.4011 106.615 33.2974C106.315 33.195 106.025 33.1425 105.746 33.1425C105.538 33.1425 105.381 33.1816 105.278 33.2572C105.174 33.3328 105.122 33.4279 105.122 33.5389V33.5572C105.122 33.6279 105.138 33.6889 105.171 33.7414C105.204 33.7938 105.26 33.8426 105.34 33.8865C105.421 33.9304 105.531 33.9755 105.67 34.0182C105.81 34.0621 105.987 34.1072 106.201 34.1548C106.558 34.2304 106.88 34.3207 107.169 34.4231C107.457 34.5256 107.702 34.6512 107.906 34.7963C108.108 34.9427 108.263 35.1195 108.369 35.3293C108.477 35.5378 108.531 35.7854 108.531 36.0732V36.0915Z" fill="white"/>
<path fill-rule="evenodd" clip-rule="evenodd" d="M147.388 34.0249H140.989C140.87 34.0249 140.752 34.0489 140.642 34.0953C140.532 34.1417 140.432 34.2096 140.348 34.2952C140.264 34.3808 140.197 34.4824 140.152 34.5941C140.107 34.7058 140.084 34.8254 140.085 34.9462C140.085 34.9462 140.087 34.9462 140.087 34.9521H140.085V39.5749H140.087L140.085 39.5786C140.085 40.0854 140.487 40.5021 140.989 40.5021H147.388V43.5859H139.404V43.5785C139.094 43.5789 138.787 43.5174 138.5 43.3975C138.213 43.2776 137.953 43.1017 137.733 42.8798C137.514 42.6579 137.34 42.3944 137.221 42.1043C137.102 41.8142 137.041 41.5032 137.041 41.1892V33.3281C137.043 32.6952 137.293 32.0888 137.736 31.6424C138.179 31.1959 138.779 30.9458 139.404 30.9469H147.388V34.0249Z" fill="white"/>
<path fill-rule="evenodd" clip-rule="evenodd" d="M149.698 25.4398C149.698 25.7584 149.636 26.0739 149.516 26.3684C149.396 26.6628 149.22 26.9304 148.997 27.1558C148.775 27.3811 148.511 27.5598 148.22 27.6817C147.929 27.8036 147.618 27.8662 147.303 27.866H137.034V24.7408H145.692C146.201 24.7408 146.609 24.319 146.609 23.8055V13.4738C146.609 12.9589 146.201 12.5414 145.692 12.5414H141.039C140.918 12.5415 140.799 12.5657 140.687 12.6127C140.576 12.6596 140.474 12.7283 140.389 12.8149C140.304 12.9015 140.236 13.0043 140.19 13.1174C140.144 13.2304 140.121 13.3516 140.121 13.4738V18.1757C140.121 18.2982 140.144 18.4196 140.19 18.533C140.236 18.6463 140.303 18.7494 140.388 18.8363C140.474 18.9232 140.575 18.9922 140.687 19.0393C140.798 19.0865 140.918 19.1108 141.039 19.111H144.756V22.2362H139.428C139.114 22.2366 138.802 22.1742 138.512 22.0525C138.221 21.9308 137.957 21.7523 137.735 21.5271C137.512 21.3019 137.336 21.0346 137.216 20.7403C137.096 20.446 137.034 20.1306 137.034 19.8122V11.8388C137.034 11.5203 137.096 11.2049 137.216 10.9106C137.336 10.6163 137.512 10.3489 137.735 10.1236C137.957 9.89831 138.221 9.71962 138.512 9.59775C138.802 9.47587 139.114 9.41318 139.428 9.41328H147.303C147.938 9.41348 148.547 9.66911 148.996 10.124C149.445 10.5788 149.698 11.1957 149.698 11.8388V25.4398Z" fill="white"/>
<path fill-rule="evenodd" clip-rule="evenodd" d="M179.956 43.5793H176.912V34.0263H174.775C174.656 34.0262 174.537 34.05 174.427 34.0962C174.317 34.1425 174.217 34.2104 174.133 34.2959C174.049 34.3814 173.982 34.483 173.937 34.5947C173.891 34.7064 173.868 34.8261 173.869 34.9469V43.5793H170.826V34.0263H168.686C168.567 34.0264 168.449 34.0503 168.339 34.0966C168.229 34.143 168.129 34.2108 168.045 34.2963C167.961 34.3818 167.894 34.4833 167.849 34.5949C167.803 34.7066 167.78 34.8262 167.78 34.9469V43.5874H164.738V33.3296C164.739 32.6968 164.988 32.0904 165.431 31.6437C165.874 31.1971 166.473 30.9467 167.098 30.9477H179.956L179.956 43.5793Z" fill="white"/>
<path fill-rule="evenodd" clip-rule="evenodd" d="M179.963 25.4398C179.964 25.7583 179.902 26.0738 179.782 26.3682C179.662 26.6626 179.486 26.9301 179.263 27.1555C179.041 27.3808 178.777 27.5596 178.486 27.6815C178.196 27.8034 177.884 27.8661 177.57 27.866H167.3V24.7408H175.958C176.469 24.7408 176.88 24.319 176.88 23.8055V13.4738C176.88 13.3512 176.856 13.2298 176.81 13.1166C176.764 13.0033 176.696 12.9004 176.61 12.8138C176.525 12.7272 176.423 12.6585 176.311 12.6118C176.199 12.5651 176.079 12.5412 175.958 12.5414H171.306C171.063 12.5424 170.83 12.6411 170.658 12.8159C170.486 12.9907 170.39 13.2273 170.391 13.4738V18.1757C170.391 18.6921 170.802 19.111 171.306 19.111H175.021V22.2362H169.695C169.381 22.2365 169.069 22.174 168.779 22.0523C168.488 21.9306 168.224 21.7521 168.002 21.527C167.779 21.3019 167.603 21.0345 167.482 20.7403C167.362 20.446 167.3 20.1307 167.3 19.8122V11.8388C167.3 11.5202 167.362 11.2046 167.482 10.9102C167.602 10.6158 167.779 10.3483 168.001 10.123C168.224 9.89773 168.488 9.71909 168.779 9.59731C169.07 9.47552 169.381 9.41299 169.696 9.41328H177.569C178.204 9.41387 178.813 9.66965 179.261 10.1244C179.71 10.5792 179.962 11.1958 179.963 11.8388L179.963 25.4398Z" fill="white"/>
<path fill-rule="evenodd" clip-rule="evenodd" d="M161.737 18.1757C161.739 18.2979 161.717 18.4193 161.672 18.5327C161.627 18.6461 161.56 18.7493 161.475 18.8364C161.39 18.9235 161.289 18.9926 161.178 19.0399C161.067 19.0872 160.947 19.1116 160.827 19.1118H156.176C156.055 19.1117 155.935 19.0874 155.823 19.0403C155.711 18.9931 155.609 18.9241 155.524 18.8371C155.439 18.7502 155.371 18.647 155.325 18.5335C155.279 18.42 155.256 18.2984 155.256 18.1757V13.4739C155.256 12.9589 155.665 12.5422 156.176 12.5422H160.827C160.947 12.5422 161.066 12.5664 161.177 12.6133C161.288 12.6603 161.389 12.729 161.474 12.8157C161.559 12.9023 161.625 13.0051 161.671 13.1181C161.716 13.2311 161.738 13.352 161.737 13.4739V18.1757ZM162.438 9.41481H154.562C154.248 9.41491 153.936 9.47771 153.646 9.59963C153.356 9.72155 153.092 9.9002 152.87 10.1254C152.648 10.3505 152.471 10.6178 152.351 10.912C152.231 11.2061 152.169 11.5213 152.17 11.8396V19.813C152.169 20.1313 152.231 20.4467 152.351 20.741C152.471 21.0352 152.647 21.3026 152.869 21.5279C153.091 21.7531 153.355 21.9317 153.646 22.0536C153.936 22.1754 154.247 22.238 154.562 22.2378H162.438C163.072 22.2372 163.681 21.9815 164.13 21.5268C164.578 21.0722 164.83 20.4557 164.831 19.813V11.8396C164.83 11.1969 164.578 10.5806 164.129 10.126C163.681 9.67137 163.072 9.4156 162.438 9.41481Z" fill="white"/>
<path fill-rule="evenodd" clip-rule="evenodd" d="M159.259 39.5749C159.26 39.6956 159.237 39.8152 159.192 39.9269C159.147 40.0387 159.08 40.1403 158.997 40.2261C158.913 40.3118 158.813 40.38 158.703 40.4268C158.593 40.4735 158.475 40.4978 158.356 40.4984C158.352 40.4984 158.35 40.4932 158.346 40.4932V40.4984H153.782V40.4932C153.782 40.4932 153.777 40.4984 153.771 40.4984C153.652 40.498 153.534 40.4738 153.424 40.4272C153.314 40.3805 153.214 40.3124 153.13 40.2266C153.046 40.1408 152.98 40.0391 152.934 39.9273C152.889 39.8155 152.866 39.6957 152.867 39.5749V34.9462C152.867 34.4379 153.27 34.0249 153.771 34.0249H158.356C158.475 34.0251 158.593 34.0491 158.703 34.0955C158.813 34.142 158.913 34.2099 158.997 34.2955C159.081 34.3811 159.147 34.4827 159.192 34.5943C159.237 34.706 159.26 34.8256 159.259 34.9462V39.5749ZM159.943 30.9469H152.184C151.559 30.9458 150.959 31.196 150.517 31.6425C150.074 32.089 149.824 32.6954 149.823 33.3282V41.1892C149.823 41.5031 149.884 41.8139 150.003 42.1038C150.121 42.3937 150.295 42.6572 150.515 42.879C150.734 43.1008 150.994 43.2767 151.281 43.3966C151.567 43.5165 151.874 43.5781 152.184 43.5778H159.943C160.568 43.5776 161.168 43.3259 161.61 42.8779C162.053 42.43 162.301 41.8226 162.301 41.1892V33.3282C162.299 32.6959 162.05 32.09 161.608 31.6435C161.166 31.197 160.567 30.9469 159.943 30.9469Z" fill="white"/>
<path d="M184.83 48.9483C184.83 49.7425 184.515 50.4555 184.001 50.9764C183.738 51.2428 183.426 51.4541 183.083 51.598C182.74 51.7419 182.371 51.8157 182 51.8149H135C134.628 51.8153 134.26 51.7414 133.917 51.5975C133.573 51.4536 133.261 51.2425 132.998 50.9762C132.735 50.7099 132.526 50.3937 132.384 50.0458C132.242 49.6978 132.169 49.3249 132.17 48.9483V4.05022C132.169 3.67364 132.242 3.3007 132.385 2.9528C132.527 2.60491 132.736 2.28889 132.999 2.02289C133.262 1.75642 133.574 1.5451 133.917 1.40106C134.26 1.25703 134.629 1.18313 135 1.18359H182C182.371 1.18321 182.74 1.25715 183.083 1.40118C183.426 1.5452 183.738 1.75648 184.001 2.02289C184.264 2.28845 184.473 2.60417 184.616 2.95186C184.758 3.29955 184.831 3.67234 184.83 4.04874V48.9483ZM184.827 1.18581C184.456 0.809166 184.015 0.510493 183.53 0.306984C183.045 0.103475 182.525 -0.000853086 182 5.25358e-06H135C134.475 -0.000853086 133.955 0.103475 133.47 0.306984C132.985 0.510493 132.544 0.809166 132.173 1.18581C131.801 1.56122 131.505 2.00751 131.304 2.49898C131.103 2.99045 130.999 3.51739 131 4.04948V48.9476C131 50.0654 131.449 51.082 132.173 51.8127C132.544 52.1894 132.985 52.4881 133.47 52.6919C133.955 52.8956 134.475 53.0003 135 53H182C182.525 53.0003 183.045 52.8956 183.53 52.6919C184.015 52.4881 184.456 52.1894 184.827 51.8127C185.199 51.4371 185.494 50.9906 185.696 50.4991C185.897 50.0075 186 49.4805 186 48.9483V4.05022C186 3.51804 185.897 2.99103 185.696 2.49946C185.494 2.00789 185.199 1.56146 184.827 1.18581Z" fill="white"/>
</svg>
