<svg width="16" height="17" viewBox="0 0 16 17" fill="none" xmlns="http://www.w3.org/2000/svg">
<path d="M13.359 11.738C15.06 10.22 16 8.5 16 8.5C16 8.5 13 3 7.99996 3C7.03955 3.00331 6.09002 3.20342 5.20996 3.588L5.97996 4.359C6.6274 4.12315 7.31091 4.00168 7.99996 4C10.12 4 11.879 5.168 13.168 6.457C13.7883 7.08069 14.3444 7.76513 14.828 8.5C14.77 8.587 14.706 8.683 14.633 8.788C14.298 9.268 13.803 9.908 13.168 10.543C13.003 10.708 12.831 10.871 12.651 11.029L13.359 11.738Z" fill="white"/>
<path d="M11.2974 9.67599C11.5205 9.05183 11.5618 8.37713 11.4165 7.73041C11.2712 7.08368 10.9452 6.49151 10.4765 6.02281C10.0078 5.5541 9.41566 5.22813 8.76893 5.08282C8.12221 4.93751 7.44751 4.97883 6.82335 5.20199L7.64635 6.02499C8.03066 5.96998 8.4225 6.00523 8.79083 6.12795C9.15915 6.25067 9.49383 6.45748 9.76834 6.732C10.0429 7.00652 10.2497 7.3412 10.3724 7.70952C10.4951 8.07784 10.5304 8.46968 10.4754 8.85399L11.2974 9.67599ZM8.35436 10.975L9.17635 11.797C8.5522 12.0201 7.8775 12.0615 7.23077 11.9162C6.58405 11.7708 5.99188 11.4449 5.52317 10.9762C5.05447 10.5075 4.72849 9.91529 4.58318 9.26857C4.43787 8.62184 4.4792 7.94715 4.70235 7.32299L5.52535 8.14599C5.47035 8.5303 5.5056 8.92214 5.62832 9.29046C5.75104 9.65878 5.95785 9.99346 6.23237 10.268C6.50688 10.5425 6.84156 10.7493 7.20988 10.872C7.5782 10.9947 7.97004 11.03 8.35436 10.975Z" fill="white"/>
<path d="M3.35 5.97008C3.17 6.13008 2.997 6.29208 2.832 6.45708C2.21165 7.08078 1.65552 7.76521 1.172 8.50009L1.367 8.78809C1.702 9.26809 2.197 9.90809 2.832 10.5431C4.121 11.8321 5.881 13.0001 8 13.0001C8.716 13.0001 9.39 12.8671 10.02 12.6401L10.79 13.4121C9.90994 13.7966 8.9604 13.9968 8 14.0001C3 14.0001 0 8.50009 0 8.50009C0 8.50009 0.939 6.77909 2.641 5.26208L3.349 5.97109L3.35 5.97008Z" fill="white"/>
<path fill-rule="evenodd" clip-rule="evenodd" d="M13.6465 14.854L1.64648 2.854L2.35448 2.146L14.3545 14.146L13.6465 14.854Z" fill="white"/>
</svg>
