<svg width="24" height="24" viewBox="0 0 24 24" fill="none" xmlns="http://www.w3.org/2000/svg">
<path d="M11.9864 0C5.65345 0 0.489241 4.85424 0 11.0373L6.44168 13.6949C6.98528 13.3153 7.6376 13.0983 8.34428 13.0983C8.39864 13.0983 8.48018 13.0983 8.53454 13.0983L11.4156 8.97627C11.4156 8.94915 11.4156 8.94915 11.4156 8.92203C11.4156 6.42712 13.4541 4.39322 15.9547 4.39322C18.4553 4.39322 20.4938 6.42712 20.4938 8.92203C20.4938 11.4169 18.4553 13.4508 15.9547 13.4508C15.9275 13.4508 15.8732 13.4508 15.846 13.4508L11.769 16.3525C11.769 16.4068 11.769 16.461 11.769 16.5153C11.769 18.3864 10.2469 19.9051 8.37146 19.9051C6.71348 19.9051 5.35447 18.739 5.02831 17.1661L0.407701 15.2678C1.82106 20.3119 6.46886 24 11.9864 24C18.6183 24 24 18.6305 24 12.0136C24 5.36949 18.6183 0 11.9864 0Z" fill="white"/>
<path d="M7.52827 18.1968L6.06055 17.6002C6.33235 18.1425 6.76723 18.6036 7.36519 18.8476C8.66983 19.39 10.1647 18.7663 10.7083 17.4646C10.9801 16.8408 10.9801 16.1358 10.7083 15.512C10.4365 14.8883 9.9473 14.4002 9.32215 14.129C8.69701 13.8578 8.01751 13.8849 7.44673 14.1019L8.96881 14.7256C9.92012 15.1324 10.3822 16.2171 9.97448 17.1663C9.59396 18.1425 8.47957 18.6036 7.52827 18.1968Z" fill="white"/>
<path d="M18.9715 8.89493C18.9715 7.2407 17.6125 5.88477 15.9545 5.88477C14.2965 5.88477 12.9375 7.2407 12.9375 8.89493C12.9375 10.5492 14.2965 11.9051 15.9545 11.9051C17.6125 11.9051 18.9715 10.5763 18.9715 8.89493ZM13.6714 8.89493C13.6714 7.64748 14.677 6.64409 15.9545 6.64409C17.232 6.64409 18.2376 7.64748 18.2376 8.89493C18.2376 10.1424 17.232 11.1458 15.9545 11.1458C14.677 11.1458 13.6714 10.1424 13.6714 8.89493Z" fill="white"/>
</svg>
