<svg width="24" height="24" viewBox="0 0 24 24" fill="none" xmlns="http://www.w3.org/2000/svg">
<path d="M0.000450134 12C0.000450134 5.3726 5.37305 0 12.0005 0C18.6279 0 24.0005 5.3726 24.0005 12C24.0005 18.6274 18.6279 24 12.0005 24C5.37305 24 0.000450134 18.6274 0.000450134 12Z" fill="white"/>
<path d="M10.616 14.5798L10.6093 14.5641C10.5079 14.5364 10.4074 14.5056 10.3078 14.4718L10.3003 14.4688C9.26422 14.1144 8.36491 13.4448 7.72827 12.5538C7.09162 11.6629 6.7495 10.5951 6.7498 9.50009C6.74947 8.15617 7.26453 6.8633 8.18889 5.88776C9.11326 4.91223 10.3765 4.32833 11.7185 4.25633C13.0605 4.18432 14.379 4.6297 15.4025 5.50073C16.4259 6.37176 17.0763 7.6021 17.2198 8.93834C17.2528 9.24734 16.9978 9.50009 16.6873 9.50009C16.3768 9.50009 16.1286 9.24659 16.0873 8.93909C15.9875 8.21329 15.6963 7.52715 15.2436 6.95118C14.7908 6.3752 14.1928 5.93018 13.5111 5.66184C12.8294 5.39349 12.0886 5.31152 11.3647 5.42433C10.6408 5.53714 9.96 5.84067 9.39228 6.30373C8.82455 6.76679 8.39037 7.37266 8.13435 8.0591C7.87833 8.74553 7.8097 9.48775 7.93554 10.2095C8.06137 10.9312 8.37711 11.6064 8.85031 12.1657C9.32352 12.725 9.93712 13.1482 10.628 13.3918C10.7672 13.0772 11.0103 12.82 11.3166 12.6633C11.6229 12.5067 11.9737 12.46 12.3102 12.5312C12.6468 12.6024 12.9487 12.7871 13.1653 13.0544C13.3818 13.3217 13.4999 13.6553 13.4998 13.9993C13.5001 14.346 13.3804 14.6822 13.1609 14.9505C12.9414 15.2189 12.6357 15.4029 12.2958 15.4713C11.9559 15.5398 11.6028 15.4883 11.2966 15.3258C10.9904 15.1633 10.7499 14.8997 10.616 14.5798ZM9.8473 15.5023C8.963 15.1847 8.15984 14.6756 7.4953 14.0113C7.0844 14.0591 6.70538 14.2562 6.43023 14.5651C6.15508 14.874 6.00297 15.2732 6.0028 15.6868V16.3768C6.0028 16.8058 6.1363 17.2243 6.3853 17.5738C7.5418 19.1968 9.4348 20.0001 11.9998 20.0001C14.5648 20.0001 16.4586 19.1961 17.6173 17.5738C17.8675 17.224 18.002 16.8047 18.0021 16.3746V15.6861C18.0021 15.2388 17.8245 14.8098 17.5083 14.4934C17.1922 14.177 16.7633 13.999 16.316 13.9986H14.6248C14.6249 14.5572 14.4468 15.1013 14.1164 15.5518C13.786 16.0022 13.3204 16.3355 12.7876 16.5031C12.2547 16.6708 11.6822 16.6641 11.1534 16.4839C10.6246 16.3038 10.167 15.9604 9.8473 15.5023ZM14.9998 9.50009C14.9998 9.06166 14.9037 8.62856 14.7183 8.23127C14.5329 7.83399 14.2626 7.48217 13.9266 7.20059C13.6146 6.93964 13.2529 6.74485 12.8633 6.62804C12.4737 6.51124 12.0645 6.47486 11.6604 6.52113C11.2564 6.56739 10.8659 6.69533 10.5128 6.89717C10.1598 7.099 9.8514 7.37053 9.60651 7.69523C9.36162 8.01994 9.18531 8.39104 9.08829 8.786C8.99127 9.18096 8.97558 9.59152 9.04215 9.99274C9.10872 10.394 9.25618 10.7774 9.47556 11.1199C9.69494 11.4624 9.98166 11.7566 10.3183 11.9848C10.7901 11.591 11.3852 11.3752 11.9998 11.3751C12.6395 11.3751 13.2261 11.6038 13.6821 11.9848C14.088 11.7099 14.4204 11.3396 14.6502 10.9065C14.8799 10.4733 14.9999 9.99041 14.9998 9.50009Z" fill="#040404"/>
</svg>
