<svg width="24" height="24" viewBox="0 0 24 24" fill="none" xmlns="http://www.w3.org/2000/svg">
<path d="M0.000488281 12C0.000488281 5.3726 5.37309 0 12.0005 0C18.6279 0 24.0005 5.3726 24.0005 12C24.0005 18.6274 18.6279 24 12.0005 24C5.37309 24 0.000488281 18.6274 0.000488281 12Z" fill="white"/>
<path d="M10.6159 14.5799L10.6092 14.5642C10.5078 14.5364 10.4072 14.5057 10.3077 14.4719L10.3002 14.4689C9.2641 14.1144 8.3648 13.4448 7.72815 12.5539C7.0915 11.6629 6.74939 10.5952 6.74969 9.50015C6.74935 8.15623 7.26441 6.86336 8.18878 5.88782C9.11314 4.91229 10.3764 4.32839 11.7184 4.25639C13.0604 4.18438 14.3789 4.62977 15.4023 5.50079C16.4258 6.37182 17.0762 7.60216 17.2197 8.9384C17.2527 9.2474 16.9977 9.50015 16.6872 9.50015C16.3767 9.50015 16.1284 9.24665 16.0872 8.93915C15.9874 8.21335 15.6962 7.52721 15.2434 6.95124C14.7907 6.37526 14.1927 5.93024 13.511 5.6619C12.8293 5.39356 12.0884 5.31158 11.3646 5.42439C10.6407 5.5372 9.95989 5.84073 9.39216 6.30379C8.82444 6.76685 8.39025 7.37273 8.13423 8.05916C7.87821 8.74559 7.80959 9.48781 7.93542 10.2095C8.06125 10.9313 8.37699 11.6065 8.8502 12.1658C9.32341 12.7251 9.937 13.1483 10.6279 13.3919C10.7671 13.0773 11.0102 12.8201 11.3165 12.6634C11.6227 12.5067 11.9736 12.4601 12.3101 12.5313C12.6467 12.6025 12.9486 12.7872 13.1651 13.0545C13.3817 13.3218 13.4998 13.6554 13.4997 13.9994C13.5 14.3461 13.3803 14.6822 13.1608 14.9506C12.9413 15.2189 12.6356 15.403 12.2957 15.4714C11.9558 15.5398 11.6027 15.4884 11.2965 15.3259C10.9902 15.1633 10.7498 14.8997 10.6159 14.5799ZM9.84719 15.5024C8.96289 15.1848 8.15973 14.6757 7.49519 14.0114C7.08429 14.0592 6.70527 14.2563 6.43012 14.5652C6.15496 14.874 6.00286 15.2732 6.00269 15.6869V16.3769C6.00269 16.8059 6.13619 17.2244 6.38519 17.5739C7.54169 19.1969 9.43469 20.0002 11.9997 20.0002C14.5647 20.0002 16.4584 19.1962 17.6172 17.5739C17.8673 17.224 18.0019 16.8047 18.0019 16.3747V15.6862C18.0019 15.2389 17.8244 14.8099 17.5082 14.4934C17.1921 14.177 16.7632 13.999 16.3159 13.9987H14.6247C14.6248 14.5573 14.4467 15.1014 14.1163 15.5518C13.7858 16.0023 13.3203 16.3356 12.7874 16.5032C12.2546 16.6709 11.6821 16.6641 11.1533 16.484C10.6245 16.3039 10.1669 15.9605 9.84719 15.5024ZM14.9997 9.50015C14.9997 9.06172 14.9036 8.62862 14.7182 8.23134C14.5327 7.83405 14.2625 7.48223 13.9264 7.20065C13.6145 6.9397 13.2527 6.74491 12.8632 6.6281C12.4736 6.5113 12.0644 6.47492 11.6603 6.52119C11.2562 6.56745 10.8658 6.69539 10.5127 6.89723C10.1596 7.09907 9.85129 7.37059 9.6064 7.69529C9.36151 8.02 9.1852 8.39111 9.08818 8.78606C8.99116 9.18102 8.97546 9.59158 9.04204 9.9928C9.10861 10.394 9.25607 10.7775 9.47545 11.12C9.69483 11.4624 9.98155 11.7567 10.3182 11.9849C10.79 11.5911 11.3851 11.3753 11.9997 11.3752C12.6394 11.3752 13.2259 11.6039 13.6819 11.9849C14.0879 11.71 14.4203 11.3397 14.65 10.9065C14.8798 10.4733 14.9998 9.99047 14.9997 9.50015Z" fill="#040404"/>
</svg>
